<?xml version="1.0" standalone="no"?>
<!DOCTYPE svg PUBLIC "-//W3C//DTD SVG 20010904//EN"
 "http://www.w3.org/TR/2001/REC-SVG-20010904/DTD/svg10.dtd">
<svg version="1.0" xmlns="http://www.w3.org/2000/svg"
 width="725.000000pt" height="746.000000pt" viewBox="0 0 725.000000 746.000000"
 preserveAspectRatio="xMidYMid meet">
<metadata>
Created by potrace 1.16, written by Peter Selinger 2001-2019
</metadata>
<g transform="translate(0.000000,746.000000) scale(0.100000,-0.100000)"
fill="#000000" stroke="none">
<path d="M3363 7050 c-884 -65 -1699 -480 -2257 -1146 -415 -496 -650 -1033
-743 -1694 -27 -187 -26 -1044 0 -1240 53 -391 158 -733 327 -1065 323 -637
821 -1128 1465 -1445 361 -179 688 -274 1105 -321 135 -15 525 -15 660 0 270
31 542 92 777 176 202 72 521 236 705 362 197 135 440 319 572 433 491 424
861 1030 1017 1665 67 273 92 487 92 785 0 530 -101 966 -333 1435 -106 215
-240 428 -380 605 -104 131 -602 630 -730 732 -218 173 -390 280 -645 404
-328 159 -659 255 -1026 298 -164 20 -453 27 -606 16z m682 -38 c680 -106
1263 -385 1746 -836 41 -38 58 -58 39 -44 -237 171 -369 252 -565 349 -424
207 -852 312 -1335 326 -716 21 -1428 -195 -1986 -603 -359 -261 -575 -441
-718 -595 -456 -492 -741 -1071 -846 -1719 -12 -74 -23 -137 -26 -139 -7 -8
-4 130 6 274 23 303 91 624 190 891 70 191 221 492 327 654 152 231 335 446
528 622 473 429 1034 703 1657 807 206 35 282 40 573 36 219 -2 308 -7 410
-23z m10 -222 c303 -23 624 -91 891 -190 451 -166 927 -475 1150 -748 362
-444 608 -996 693 -1555 28 -183 53 -552 36 -536 -2 3 -16 71 -29 151 -95 561
-321 1063 -682 1513 -109 135 -337 364 -464 467 -523 417 -1095 652 -1749 718
-57 5 -197 10 -311 10 -114 0 -254 -5 -311 -10 -430 -43 -815 -158 -1199 -356
-143 -73 -128 -57 45 52 574 360 1265 533 1930 484z m-50 -204 c606 -86 1134
-311 1605 -684 118 -94 347 -317 448 -437 428 -509 680 -1100 753 -1767 9 -83
9 -133 0 -215 -81 -746 -388 -1403 -900 -1927 -432 -441 -920 -727 -1506 -881
-448 -119 -969 -136 -1420 -49 -509 98 -1006 327 -1403 644 -128 102 -183 157
-276 274 -371 465 -595 994 -683 1607 -25 176 -25 642 0 818 92 644 348 1223
746 1685 117 135 355 364 441 422 389 266 930 463 1410 513 58 6 119 13 135
15 71 10 546 -4 650 -18z m-2508 -766 c-349 -366 -600 -783 -750 -1245 -112
-346 -157 -635 -157 -1015 0 -222 9 -341 41 -540 77 -483 289 -988 582 -1382
81 -110 45 -80 -82 67 -424 491 -688 1103 -761 1765 -13 116 -9 200 21 397 88
584 353 1160 740 1608 119 137 423 433 448 435 2 0 -35 -40 -82 -90z m4781
-140 c397 -445 666 -1031 764 -1665 29 -189 36 -577 14 -785 -91 -858 -517
-1643 -1186 -2186 -19 -16 11 20 68 80 519 548 829 1235 891 1979 14 166 14
808 0 974 -6 70 -21 193 -35 272 -88 523 -276 959 -620 1436 l-36 50 34 -36
c18 -20 66 -74 106 -119z m-5899 -2385 c61 -377 183 -734 360 -1055 74 -134
224 -356 327 -485 114 -142 577 -605 719 -719 525 -420 1128 -661 1788 -715
641 -53 1335 99 1865 409 86 50 59 26 -60 -53 -447 -297 -970 -480 -1509 -528
-187 -16 -565 -6 -734 20 -659 100 -1227 368 -1717 808 -552 496 -928 1203
-1032 1938 -25 177 -47 529 -32 514 3 -2 14 -63 25 -134z m6442 -115 c-25
-360 -92 -664 -218 -985 -165 -419 -404 -784 -722 -1104 -145 -146 -236 -219
-378 -304 -1193 -716 -2691 -595 -3758 305 -49 42 -108 95 -130 118 -35 37
-30 34 49 -24 466 -346 1033 -561 1630 -617 187 -17 593 -7 771 21 382 58 750
181 1078 360 868 473 1481 1323 1647 2285 11 66 23 136 27 155 l7 35 4 -40 c2
-22 -1 -114 -7 -205z"/>
<path d="M3002 6029 c2 -15 23 -29 78 -53 l75 -32 3 -777 2 -777 -85 0 c-76 0
-85 -2 -85 -19 0 -13 21 -27 83 -53 l82 -35 0 -529 0 -529 -26 -77 c-73 -214
-224 -328 -434 -328 -138 0 -286 58 -394 156 -58 53 -59 54 -81 36 l-22 -18
59 -55 c217 -201 605 -246 846 -98 27 16 50 29 53 29 2 0 4 -324 4 -720 l0
-720 130 0 130 0 0 785 0 785 248 0 247 0 420 -771 c231 -424 422 -774 425
-779 3 -4 94 -11 203 -15 195 -7 197 -7 197 13 0 17 -15 26 -76 49 -42 15 -82
37 -89 48 -8 11 -189 342 -404 735 -365 669 -389 715 -368 721 12 4 57 14 101
24 199 44 389 190 473 365 55 113 68 173 67 305 -1 126 -18 204 -69 305 -68
136 -179 240 -330 310 -148 70 -170 72 -642 77 l-423 5 0 829 0 829 -201 0
c-197 0 -200 0 -197 -21z m1142 -1739 c110 -28 169 -63 262 -155 126 -124 178
-254 178 -440 0 -186 -52 -316 -178 -440 -93 -92 -152 -127 -262 -155 -69 -18
-111 -20 -401 -20 l-323 0 0 615 0 615 323 0 c290 0 332 -2 401 -20z"/>
</g>
</svg>
